<svg width="19" height="19" viewBox="0 0 19 19" fill="none" xmlns="http://www.w3.org/2000/svg">
<path d="M18.4897 8.26408C18.4892 8.26365 18.4887 8.26307 18.4883 8.26263L10.737 0.512428C10.4066 0.181923 9.96736 0 9.50011 0C9.03286 0 8.59359 0.181923 8.26305 0.512428L0.515834 8.25872C0.513224 8.26133 0.51047 8.26408 0.508005 8.26669C-0.170469 8.94901 -0.169309 10.0561 0.51134 10.7366C0.822307 11.0477 1.23287 11.2278 1.67199 11.2467C1.68997 11.2485 1.70795 11.2494 1.72607 11.2494H2.03486V16.9529C2.03486 18.0817 2.95341 19 4.08232 19H7.11487C7.42235 19 7.67156 18.7507 7.67156 18.4434V13.9717C7.67156 13.4566 8.09068 13.0377 8.60577 13.0377H10.3944C10.9095 13.0377 11.3285 13.4566 11.3285 13.9717V18.4434C11.3285 18.7507 11.5777 19 11.8852 19H14.9178C16.0468 19 16.9652 18.0817 16.9652 16.9529V11.2494H17.2517C17.7188 11.2494 18.1581 11.0674 18.4887 10.7368C19.1701 10.0552 19.1704 8.94611 18.4897 8.26408ZM17.7014 9.94966C17.5812 10.0698 17.4214 10.1361 17.2517 10.1361H16.4085C16.101 10.1361 15.8518 10.3853 15.8518 10.6927V16.9529C15.8518 17.4678 15.4328 17.8867 14.9178 17.8867H12.4419V13.9717C12.4419 12.8429 11.5235 11.9244 10.3944 11.9244H8.60577C7.47672 11.9244 6.55817 12.8429 6.55817 13.9717V17.8867H4.08232C3.56737 17.8867 3.14826 17.4678 3.14826 16.9529V10.6927C3.14826 10.3853 2.89905 10.1361 2.59156 10.1361H1.76289C1.75419 10.1355 1.74564 10.1351 1.7368 10.1349C1.57095 10.132 1.41539 10.0662 1.29883 9.94952C1.05093 9.70164 1.05093 9.29822 1.29883 9.05019C1.29898 9.05019 1.29898 9.05005 1.29912 9.0499L1.29956 9.04947L9.05055 1.29955C9.17059 1.17938 9.3302 1.11328 9.50011 1.11328C9.66987 1.11328 9.82949 1.17938 9.94967 1.29955L17.6989 9.04787C17.7001 9.04903 17.7014 9.05019 17.7025 9.05135C17.9491 9.29967 17.9487 9.70222 17.7014 9.94966Z" fill="black" fill-opacity="0.5"/>
</svg>
