<svg width="40" height="40" viewBox="0 0 40 40" fill="none" xmlns="http://www.w3.org/2000/svg">
<circle cx="20" cy="20" r="20" fill="white"/>
<path d="M29.6077 26.3036C29.5372 26.2597 29.0059 25.9032 28.474 24.8249C27.4972 22.8446 27.2921 20.0551 27.2921 18.0636C27.2921 18.055 27.2919 18.0464 27.2916 18.0377C27.281 15.4058 25.6356 13.137 23.2811 12.119V10.5622C23.2811 9.14937 22.0832 8 20.6107 8H20.3893C18.9168 8 17.7188 9.14937 17.7188 10.5622V12.1189C15.3565 13.1402 13.7079 15.4206 13.7079 18.0636C13.7079 20.0551 13.5028 22.8446 12.526 24.8249C11.9941 25.9032 11.4629 26.2596 11.3923 26.3036C11.0948 26.4354 10.9482 26.74 11.0166 27.0486C11.0857 27.3603 11.3899 27.5752 11.722 27.5752H16.8784C16.9072 29.4683 18.5202 31 20.5 31C22.4798 31 24.0929 29.4683 24.1217 27.5752H29.278C29.6101 27.5752 29.9144 27.3603 29.9834 27.0486C30.0518 26.74 29.9052 26.4354 29.6077 26.3036ZM19.1258 10.5622C19.1258 9.89368 19.6927 9.34986 20.3894 9.34986H20.6107C21.3074 9.34986 21.8742 9.89368 21.8742 10.5622V11.6815C21.4302 11.5936 20.9705 11.5473 20.4998 11.5473C20.0293 11.5473 19.5697 11.5935 19.1259 11.6813V10.5622H19.1258ZM20.5 29.6501C19.296 29.6501 18.3139 28.724 18.2853 27.5753H22.7147C22.6861 28.7239 21.704 29.6501 20.5 29.6501ZM23.3327 26.2253C23.3325 26.2253 13.3253 26.2253 13.3253 26.2253C13.447 26.0437 13.5708 25.838 13.6939 25.6055C14.6368 23.8247 15.1149 21.2872 15.1149 18.0636C15.1149 15.2148 17.5306 12.8972 20.4998 12.8972C23.469 12.8972 25.8847 15.2148 25.8847 18.0659C25.8847 18.0742 25.8848 18.0824 25.8852 18.0907C25.8878 21.3014 26.3659 23.8297 27.3061 25.6055C27.4292 25.838 27.5531 26.0437 27.6748 26.2253H23.3327Z" fill="black" fill-opacity="0.5"/>
</svg>
